<?xml version="1.0" standalone="no"?>
<!DOCTYPE svg PUBLIC "-//W3C//DTD SVG 20010904//EN"
 "http://www.w3.org/TR/2001/REC-SVG-20010904/DTD/svg10.dtd">
<svg version="1.0" xmlns="http://www.w3.org/2000/svg"
 width="400.000000pt" height="400.000000pt" viewBox="0 0 400.000000 400.000000"
 preserveAspectRatio="xMidYMid meet">
<metadata>
Created by potrace 1.14, written by Peter Selinger 2001-2017
</metadata>
<g transform="translate(0.000000,400.000000) scale(0.100000,-0.100000)"
fill="#000000" stroke="none">
<path d="M455 3528 c-3 -7 -4 -200 -3 -428 l3 -415 430 0 430 0 0 425 0 425
-428 3 c-337 2 -429 0 -432 -10z m725 -418 l0 -300 -295 0 -295 0 0 300 0 300
295 0 295 0 0 -300z"/>
<path d="M700 3110 l0 -190 185 0 185 0 0 190 0 190 -185 0 -185 0 0 -190z"/>
<path d="M1544 3527 c-2 -7 -3 -91 -2 -187 l3 -175 65 0 65 0 3 123 3 123 52
-3 52 -3 5 -60 5 -60 60 0 60 0 3 68 3 67 -61 0 -60 0 0 60 0 60 -125 0 c-93
0 -127 -3 -131 -13z"/>
<path d="M2150 3480 l0 -60 -60 0 -61 0 3 -67 3 -68 60 0 60 0 5 60 5 60 52 3
52 3 3 -63 3 -63 65 0 65 0 0 125 0 125 -127 3 -128 3 0 -61z"/>
<path d="M2640 3110 l0 -430 430 0 430 0 0 430 0 430 -430 0 -430 0 0 -430z
m720 0 l0 -300 -295 0 -295 0 0 300 0 300 295 0 295 0 0 -300z"/>
<path d="M2880 3110 l0 -190 188 2 187 3 0 185 0 185 -187 3 -188 2 0 -190z"/>
<path d="M2157 3174 c-4 -4 -7 -31 -7 -60 l0 -54 -237 -2 -238 -3 -3 -67 -3
-68 61 0 61 0 -3 -52 -3 -53 -57 -3 -57 -3 -3 -57 -3 -57 -52 -3 -53 -3 0 121
0 121 -67 -3 -68 -3 0 -120 0 -120 58 -3 57 -3 0 -54 0 -54 -57 -3 -58 -3 0
-125 0 -125 26 -3 25 -3 -24 -49 -25 -50 -53 0 -53 0 -3 58 -3 57 -65 0 -65 0
-3 -57 -3 -58 -54 0 -55 0 0 60 0 60 -60 0 -60 0 0 120 0 120 -65 0 -65 0 0
-60 0 -60 -60 0 -60 0 0 -60 0 -60 -60 0 -60 0 0 -70 0 -71 123 3 122 3 3 58
3 57 54 0 54 0 3 -57 3 -58 58 -3 57 -3 0 -59 0 -60 60 0 60 0 0 -60 0 -60 60
0 60 0 0 -55 0 -55 -60 0 -60 0 0 -60 0 -60 -55 0 -55 0 0 120 0 120 -120 0
-119 0 -3 63 -3 62 -60 0 -60 0 -5 -60 -5 -60 -52 -3 -52 -3 -3 63 -3 63 -62
3 c-76 4 -75 5 -71 -148 l3 -105 63 -3 63 -3 -3 -52 -3 -52 -60 -5 -60 -5 0
-60 0 -60 68 -3 67 -3 0 61 0 60 55 0 55 0 0 -60 0 -60 65 0 65 0 0 60 0 60
55 0 55 0 0 -60 0 -60 120 0 120 0 0 -60 0 -61 68 3 67 3 0 60 0 60 -63 3 -63
3 3 52 3 52 60 5 60 5 3 58 3 57 47 0 47 0 18 -51 c17 -46 17 -52 2 -62 -13
-10 -15 -37 -13 -192 l3 -180 58 -3 57 -3 0 -49 0 -49 -57 -3 -58 -3 0 -65 0
-65 123 -3 122 -3 0 -59 0 -60 65 0 66 0 -3 68 -3 67 -57 3 -58 3 0 49 0 49
58 3 57 3 3 68 3 67 -61 0 -60 0 0 55 c0 30 2 55 4 55 2 0 28 -11 57 -25 98
-44 173 -58 296 -53 104 4 113 3 113 -14 0 -15 -9 -18 -60 -18 l-60 0 0 -60 0
-59 -57 -3 -58 -3 -3 -127 -3 -128 61 0 60 0 0 -60 0 -60 60 0 60 0 0 -55 0
-55 -60 0 -60 0 0 -125 0 -125 65 0 64 0 3 57 3 58 53 3 52 3 0 -60 0 -61 130
0 130 0 0 61 0 60 53 -3 52 -3 3 -57 3 -58 124 0 125 0 0 65 0 65 -120 0 -120
0 0 60 0 60 -120 0 -119 0 -3 57 -3 58 -120 5 -120 5 -3 52 -3 52 63 3 63 3 3
53 c5 79 -1 82 -134 82 l-114 0 0 50 0 50 60 0 60 0 0 60 0 60 55 0 54 0 3
-57 3 -58 57 -3 57 -3 3 -117 3 -117 183 -3 182 -2 0 -120 0 -120 120 0 120 0
0 -60 0 -60 65 0 65 0 0 60 0 59 63 3 62 3 3 117 3 117 57 3 57 3 0 65 0 65
-57 3 -58 3 0 49 0 49 118 3 117 3 0 125 0 125 -65 0 -65 0 -3 -57 -3 -57 -57
-3 -57 -3 -3 -58 -3 -57 -55 0 -55 0 3 113 3 112 60 5 60 5 3 57 3 57 57 3 57
3 3 58 3 57 60 0 59 0 -2 188 -3 187 -125 0 -125 0 -3 -63 -3 -63 -52 3 -52 3
-5 60 -5 60 -60 0 -60 0 -3 -122 -3 -123 -54 0 -55 0 0 60 0 60 -60 0 -59 0
-3 63 -3 62 -60 0 -60 0 -5 -58 c-7 -86 -24 -74 -32 23 -7 84 -32 175 -66 234
-12 23 -16 48 -14 94 l3 63 52 -3 52 -3 5 -120 5 -120 60 0 60 0 3 123 3 122
59 0 60 0 0 65 0 65 -65 0 -65 0 0 -60 0 -60 -55 0 -55 0 0 60 0 61 -67 -3
-68 -3 -3 -57 -3 -58 -47 0 c-40 0 -56 6 -101 40 -29 22 -57 40 -61 40 -4 0
-10 9 -13 20 -4 14 -13 20 -34 20 -15 0 -57 7 -93 15 -36 8 -77 17 -92 20
l-28 5 0 95 0 95 55 0 55 0 0 -60 0 -61 68 3 67 3 3 58 3 57 49 0 49 0 3 -57
3 -58 68 -3 67 -3 -2 188 -3 188 -57 3 -57 3 -3 57 -3 57 -121 3 c-66 1 -123
-1 -127 -4z m-127 -309 l0 -55 -55 0 -55 0 0 55 0 55 55 0 55 0 0 -55z m240
-1 l0 -55 -52 3 -53 3 -3 53 -3 52 55 0 56 0 0 -56z m-360 -119 l0 -55 -55 0
-55 0 0 55 0 55 55 0 55 0 0 -55z m-120 -120 l0 -56 -47 -21 c-27 -12 -51 -24
-55 -26 -5 -2 -8 33 -8 77 l0 81 55 0 55 0 0 -55z m490 -415 c15 -28 11 -33
-166 -256 -95 -120 -161 -194 -172 -194 -9 0 -62 35 -117 78 -101 79 -120 107
-95 138 22 25 51 15 127 -43 63 -48 76 -54 87 -42 7 8 70 87 141 177 111 140
132 162 156 162 18 0 32 -7 39 -20z m-980 -70 l0 -50 -55 0 -55 0 0 50 0 50
55 0 55 0 0 -50z m2060 -305 l0 -115 -50 0 -50 0 0 115 0 115 50 0 50 0 0
-115z m-2540 -60 l0 -55 -55 0 -55 0 0 55 0 55 55 0 55 0 0 -55z m1940 0 l0
-55 -105 0 -105 0 20 50 c11 28 20 53 20 55 0 3 38 5 85 5 l85 0 0 -55z m360
-5 l0 -60 60 0 60 0 0 -55 0 -55 -115 0 -115 0 0 115 0 115 55 0 55 0 0 -60z
m-240 -115 l0 -55 -55 0 -55 0 0 55 0 55 55 0 55 0 0 -55z m-490 -215 l0 -80
-50 0 -50 0 0 48 c0 47 2 50 48 80 26 17 48 32 50 32 1 0 2 -36 2 -80z m488
-147 l2 -173 -175 0 -175 0 0 175 0 175 173 -2 172 -3 3 -172z m362 -249 l0
-55 -52 3 -53 3 -3 53 -3 52 55 0 56 0 0 -56z m-120 -239 l0 -55 -55 0 -55 0
0 55 0 55 55 0 55 0 0 -55z"/>
<path d="M2642 1293 l3 -68 60 0 60 0 3 68 3 67 -66 0 -66 0 3 -67z"/>
<path d="M454 2556 c-3 -7 -4 -35 -2 -62 l3 -49 68 -3 67 -3 0 66 0 65 -65 0
c-47 0 -67 -4 -71 -14z"/>
<path d="M1060 2505 l0 -66 128 3 127 3 0 60 0 60 -127 3 -128 3 0 -66z"/>
<path d="M3367 2444 c-4 -4 -7 -31 -7 -60 l0 -53 -57 -3 -58 -3 0 -65 0 -65
125 0 125 0 0 125 0 125 -60 3 c-34 2 -64 0 -68 -4z"/>
<path d="M2882 2263 l3 -68 60 0 60 0 3 68 3 67 -66 0 -66 0 3 -67z"/>
<path d="M455 1348 c-3 -7 -4 -200 -3 -428 l3 -415 430 0 430 0 0 425 0 425
-428 3 c-337 2 -429 0 -432 -10z m725 -423 l0 -295 -295 0 -295 0 0 295 0 295
295 0 295 0 0 -295z"/>
<path d="M707 1114 c-4 -4 -7 -90 -7 -191 l0 -183 185 0 185 0 -2 188 -3 187
-176 3 c-96 1 -178 -1 -182 -4z"/>
<path d="M1424 976 c-3 -7 -4 -35 -2 -62 l3 -49 57 -3 57 -3 3 -57 3 -57 63
-3 62 -3 0 -54 0 -54 -122 -3 -123 -3 -3 -62 -3 -63 251 0 250 0 0 65 0 65
-60 0 -60 0 0 120 0 120 -120 0 -120 0 0 60 0 60 -65 0 c-47 0 -67 -4 -71 -14z"/>
<path d="M3364 856 c-3 -7 -4 -35 -2 -62 l3 -49 68 -3 67 -3 0 66 0 65 -65 0
c-47 0 -67 -4 -71 -14z"/>
<path d="M3240 565 l0 -65 130 0 130 0 0 65 0 65 -130 0 -130 0 0 -65z"/>
</g>
</svg>
